<svg width="20" height="20" viewBox="0 0 20 20" fill="none" xmlns="http://www.w3.org/2000/svg">
<path fill-rule="evenodd" clip-rule="evenodd" d="M3.88898 17.5C3.62469 17.5046 3.36788 17.4121 3.1673 17.2399C2.97785 17.0773 2.85103 16.8543 2.80769 16.6094L2.80769 11.1816C2.90654 10.6112 3.40343 10.1948 3.88872 10.2036L3.90224 10.2037H5.26595L5.26595 17.4998H3.90224L3.88898 17.5ZM2.19031 18.3781C2.66797 18.7881 3.27904 19.0092 3.9083 18.9998L6.01595 18.9998C6.02224 18.9998 6.02852 18.9998 6.03478 18.9996H15.2123C15.7733 19.0048 16.3176 18.8077 16.7452 18.4442C17.1738 18.0799 17.4564 17.5724 17.5409 17.0162L18.6325 9.89147C18.6833 9.55706 18.6607 9.21561 18.5664 8.89077C18.4721 8.56594 18.3083 8.2655 18.0864 8.01026C17.8644 7.75502 17.5896 7.55109 17.281 7.41259C16.9739 7.27473 16.6405 7.20499 16.3039 7.20812H12.3078V4.79151C12.3078 3.96272 11.9785 3.16788 11.3925 2.58183C10.8065 1.99579 10.0116 1.66656 9.18283 1.66656C8.88644 1.66656 8.61785 1.8411 8.49747 2.11195L5.56781 8.7037H3.9084C2.55531 8.68334 1.48282 9.78104 1.31447 11.0243C1.30995 11.0577 1.30769 11.0913 1.30769 11.125V16.6665C1.30769 16.7002 1.30995 16.7337 1.31446 16.7671C1.39916 17.3933 1.71083 17.9666 2.19031 18.3781ZM15.7737 17.3013C15.6206 17.4315 15.4255 17.5019 15.2246 17.4997L6.76622 17.4996L6.76622 9.70059L9.64094 3.23246C9.89962 3.30848 10.1378 3.4484 10.3318 3.64249C10.6366 3.94723 10.8078 4.36055 10.8078 4.79151V7.95812C10.8078 8.37233 11.1436 8.70812 11.5578 8.70812L16.3077 8.70817L16.3162 8.70807C16.437 8.70671 16.5566 8.73162 16.6668 8.78108C16.777 8.83054 16.8752 8.90337 16.9544 8.99453C17.0337 9.08568 17.0922 9.19298 17.1259 9.30899C17.1595 9.42486 17.1675 9.54708 17.1495 9.66637L16.0579 16.7913C16.0278 16.99 15.9268 17.1712 15.7737 17.3013Z" fill="#D0D2D7"/>
</svg>
